<?xml version="1.0" encoding="utf-8"?>
<!-- Generator: Adobe Illustrator 16.0.0, SVG Export Plug-In . SVG Version: 6.00 Build 0)  -->
<!DOCTYPE svg PUBLIC "-//W3C//DTD SVG 1.1//EN" "http://www.w3.org/Graphics/SVG/1.1/DTD/svg11.dtd">
<svg version="1.1" id="Layer_1" xmlns="http://www.w3.org/2000/svg" xmlns:xlink="http://www.w3.org/1999/xlink" x="0px" y="0px"
	 width="80px" height="67px" viewBox="26.77 0.77 80 67" enable-background="new 26.77 0.77 80 67" xml:space="preserve">
<g>

		<path fill="#FFFFFF" stroke="#FFFFFF" stroke-width="3" stroke-linecap="round" stroke-linejoin="round" stroke-miterlimit="10" d="
		M73.143,56.462c-0.001,0-0.003,0-0.005,0c-0.394-0.002-0.755-0.223-0.938-0.574L48.827,10.895H38.702l22.281,42.183l2.06-4.121
		c0.262-0.523,0.901-0.734,1.424-0.475c0.524,0.264,0.736,0.9,0.474,1.426l-2.983,5.967c-0.179,0.355-0.54,0.582-0.938,0.588
		c-0.4-0.004-0.765-0.215-0.95-0.566L36,10.331c-0.173-0.33-0.163-0.725,0.029-1.044c0.192-0.318,0.537-0.513,0.909-0.513H49.47
		c0.396,0,0.759,0.22,0.942,0.572l22.736,43.767l22.3-42.216h-9.354L71.28,37.18c-0.287,0.511-0.935,0.691-1.446,0.404
		c-0.51-0.288-0.69-0.936-0.404-1.445L84.547,9.313c0.188-0.333,0.542-0.54,0.925-0.54h11.737c0.371,0,0.716,0.195,0.908,0.513
		c0.191,0.32,0.202,0.715,0.029,1.044L74.082,55.896C73.897,56.244,73.535,56.462,73.143,56.462z"/>
</g>
</svg>
